<svg xmlns="http://www.w3.org/2000/svg" viewBox="0 0 24 24" fill="white"><path d="M12 2C6.477 2 2 6.484 2 12s4.477 10 10 10 10-4.484 10-10S17.523 2 12 2zm4.528 14.545a.75.75 0 0 1-1.032.225c-2.82-1.733-6.385-2.12-10.605-1.151a.75.75 0 0 1-.34-1.46c4.633-1.08 8.683-.646 11.865 1.326a.75.75 0 0 1 .212 1.06zm1.291-2.942a.75.75 0 0 1-1.043.235c-3.232-2.016-8.15-2.6-11.95-1.412a.75.75 0 1 1-.453-1.429c4.32-1.37 9.792-.72 13.498 1.585a.75.75 0 0 1 .235 1.02zm.135-3.065c-3.73-2.268-9.93-2.475-13.23-1.343a.75.75 0 1 1-.47-1.426c3.79-1.252 10.552-1.01 14.758 1.545a.75.75 0 0 1-.748 1.225z"/></svg>