<svg xmlns="http://www.w3.org/2000/svg" viewBox="0 0 24 24" fill="white"><path d="M12 2.2c3.2 0 3.6 0 4.9.1 1.2.1 1.9.3 2.3.5.6.2 1 .6 1.5 1.1.5.5.9.9 1.1 1.5.2.4.4 1.1.5 2.3.1 1.3.1 1.7.1 4.9s0 3.6-.1 4.9c-.1 1.2-.3 1.9-.5 2.3-.2.6-.6 1-1.1 1.5-.5.5-.9.9-1.5 1.1-.4.2-1.1.4-2.3.5-1.3.1-1.7.1-4.9.1s-3.6 0-4.9-.1c-1.2-.1-1.9-.3-2.3-.5-.6-.2-1-.6-1.5-1.1-.5-.5-.9-.9-1.1-1.5-.2-.4-.4-1.1-.5-2.3C2.2 15.6 2.2 15.2 2.2 12s0-3.6.1-4.9c.1-1.2.3-1.9.5-2.3.2-.6.6-1 1.1-1.5.5-.5.9-.9 1.5-1.1.4-.2 1.1-.4 2.3-.5C8.4 2.2 8.8 2.2 12 2.2zm0 1.8c-3.1 0-3.5 0-4.7.1-1 .1-1.6.3-2 .5-.5.2-.8.5-1.2.9-.4.4-.7.7-.9 1.2-.2.4-.4 1-.5 2-.1 1.2-.1 1.6-.1 4.7s0 3.5.1 4.7c.1 1 .3 1.6.5 2 .2.5.5.8.9 1.2.4.4.7.7 1.2.9.4.2 1 .4 2 .5 1.2.1 1.6.1 4.7.1s3.5 0 4.7-.1c1-.1 1.6-.3 2-.5.5-.2.8-.5 1.2-.9.4-.4.7-.7.9-1.2.2-.4.4-1 .5-2 .1-1.2.1-1.6.1-4.7s0-3.5-.1-4.7c-.1-1-.3-1.6-.5-2-.2-.5-.5-.8-.9-1.2-.4-.4-.7-.7-1.2-.9-.4-.2-1-.4-2-.5-1.2-.1-1.6-.1-4.7-.1zm0 3.8a5.9 5.9 0 1 1 0 11.8 5.9 5.9 0 0 1 0-11.8zm0 1.8a4.1 4.1 0 1 0 0 8.2 4.1 4.1 0 0 0 0-8.2zm5.9-2.3a1.4 1.4 0 1 1-2.8 0 1.4 1.4 0 0 1 2.8 0z"/></svg>